<svg width="24" height="24" viewBox="0 0 24 24" fill="none" xmlns="http://www.w3.org/2000/svg">
<g clip-path="url(#clip0_6208_724)">
<path d="M12 0C5.4 0 0 5.4 0 12C0 18.6 5.4 24 12 24C18.6 24 24 18.6 24 12C24 5.4 18.6 0 12 0ZM18.7 9.2L11.4 17.4C11.1 17.7 10.7 17.9 10.3 17.9C9.9 17.9 9.5 17.7 9.2 17.5L5.4 13.7C4.8 13.1 4.8 12.2 5.4 11.6C6 11 6.9 11 7.5 11.5L10.2 14.2L16.5 7.1C17 6.6 17.9 6.5 18.6 7C19.2 7.6 19.2 8.5 18.7 9.2Z" fill="black"/>
<ellipse cx="12" cy="12" rx="12" ry="12" fill="#45B2EA"/>
<path d="M11.2071 6.79289C10.8166 6.40237 10.1834 6.40237 9.79289 6.79289C9.40237 7.18342 9.40237 7.81658 9.79289 8.20711L11.2071 6.79289ZM15 12L15.7071 12.7071C15.8946 12.5196 16 12.2652 16 12C16 11.7348 15.8946 11.4804 15.7071 11.2929L15 12ZM9.79289 15.7929C9.40237 16.1834 9.40237 16.8166 9.79289 17.2071C10.1834 17.5976 10.8166 17.5976 11.2071 17.2071L9.79289 15.7929ZM9.79289 8.20711L14.2929 12.7071L15.7071 11.2929L11.2071 6.79289L9.79289 8.20711ZM14.2929 11.2929L9.79289 15.7929L11.2071 17.2071L15.7071 12.7071L14.2929 11.2929Z" fill="white"/>
</g>
<defs>
<clipPath id="clip0_6208_724">
<rect width="24" height="24" fill="white"/>
</clipPath>
</defs>
</svg>
